<?xml version="1.0" standalone="yes"?>

<svg version="1.1" viewBox="0.0 0.0 37.79527559055118 37.79527559055118" fill="none" stroke="none" stroke-linecap="square" stroke-miterlimit="10" xmlns="http://www.w3.org/2000/svg" xmlns:xlink="http://www.w3.org/1999/xlink"><clipPath id="p.0"><path d="m0 0l37.795277 0l0 37.795277l-37.795277 0l0 -37.795277z" clip-rule="nonzero"></path></clipPath><g clip-path="url(#p.0)"><path fill="#000000" fill-opacity="0.0" d="m0 0l37.795277 0l0 37.795277l-37.795277 0z" fill-rule="evenodd"></path><path fill="#000000" fill-opacity="0.0" d="m0.79443395 37.024918l5.5917697 0" fill-rule="evenodd"></path><path stroke="#000000" stroke-width="1.0" stroke-linejoin="round" stroke-linecap="butt" d="m0.79443395 37.024918l5.5917697 0" fill-rule="evenodd"></path><path fill="#000000" fill-opacity="0.0" d="m28.753284 7.2131143l-5.59177 0" fill-rule="evenodd"></path><path stroke="#000000" stroke-width="1.0" stroke-linejoin="round" stroke-linecap="butt" d="m28.753284 7.2131143l-5.59177 0" fill-rule="evenodd"></path><path fill="#000000" fill-opacity="0.0" d="m28.579 7.2131143l-22.190962 29.679754" fill-rule="evenodd"></path><path stroke="#000000" stroke-width="1.0" stroke-linejoin="round" stroke-linecap="butt" d="m28.579 7.2131143l-22.190962 29.679754" fill-rule="evenodd"></path><path fill="#000000" fill-opacity="0.0" d="m28.579 36.893566l0 -29.679752" fill-rule="evenodd"></path><path stroke="#000000" stroke-width="1.0" stroke-linejoin="round" stroke-linecap="butt" d="m28.579 36.893566l0 -29.679752" fill-rule="evenodd"></path><path fill="#000000" fill-opacity="0.0" d="m23.336716 14.4003935l-0.17611885 14.110459" fill-rule="evenodd"></path><path stroke="#000000" stroke-width="1.0" stroke-linejoin="round" stroke-linecap="butt" d="m23.336716 14.4003935l-0.17611885 14.110459" fill-rule="evenodd"></path><path fill="#000000" fill-opacity="0.0" d="m23.161514 32.634438l0 4.3932724" fill-rule="evenodd"></path><path stroke="#000000" stroke-width="1.0" stroke-linejoin="round" stroke-linecap="butt" d="m23.161514 32.634438l0 4.3932724" fill-rule="evenodd"></path><path fill="#000000" fill-opacity="0.0" d="m28.753284 36.893566l-5.59177 0" fill-rule="evenodd"></path><path stroke="#000000" stroke-width="1.0" stroke-linejoin="round" stroke-linecap="butt" d="m28.753284 36.893566l-5.59177 0" fill-rule="evenodd"></path><path fill="#000000" fill-opacity="0.0" d="m23.161514 7.2131143l-22.36708 29.813898" fill-rule="evenodd"></path><path stroke="#000000" stroke-width="1.0" stroke-linejoin="round" stroke-linecap="butt" d="m23.161514 7.2131143l-22.36708 29.813898" fill-rule="evenodd"></path><path fill="#000000" fill-opacity="0.0" d="m23.161514 28.375309l-10.313954 0" fill-rule="evenodd"></path><path stroke="#000000" stroke-width="1.0" stroke-linejoin="round" stroke-linecap="butt" d="m23.161514 28.375309l-10.313954 0" fill-rule="evenodd"></path><path fill="#000000" fill-opacity="0.0" d="m23.161514 32.634438l-13.451069 -0.13414764" fill-rule="evenodd"></path><path stroke="#000000" stroke-width="1.0" stroke-linejoin="round" stroke-linecap="butt" d="m23.161514 32.634438l-13.451069 -0.13414764" fill-rule="evenodd"></path><path fill="#93c47d" d="m23.14841 7.1005225l5.5917683 0l0 29.946646l-5.4174843 0l0 -4.391876l-13.979425 0l0 -4.2591286l13.979425 0z" fill-rule="evenodd"></path><path stroke="#38761d" stroke-width="1.0" stroke-linejoin="round" stroke-linecap="butt" d="m23.14841 7.1005225l5.5917683 0l0 29.946646l-5.4174843 0l0 -4.391876l-13.979425 0l0 -4.2591286l13.979425 0z" fill-rule="evenodd"></path><path fill="#38761d" d="m28.738474 7.1005225l-22.616581 29.836954l-5.3422685 0l22.554207 -29.75451z" fill-rule="evenodd"></path><path stroke="#38761d" stroke-width="1.0" stroke-linejoin="round" stroke-linecap="butt" d="m28.738474 7.1005225l-22.616581 29.836954l-5.3422685 0l22.554207 -29.75451z" fill-rule="evenodd"></path><path fill="#cfe2f3" d="m28.744028 7.1005616l8.406916 -6.285289l0 4.2591286l-5.9412537 4.259128l0.17520142 15.173144l2.970169 -2.3957596l0 4.126381l-2.970169 2.1295643l0 6.5214386l-2.7280064 2.1665955z" fill-rule="evenodd"></path><path stroke="#1155cc" stroke-width="1.0" stroke-linejoin="round" stroke-linecap="butt" d="m28.744028 7.1005616l8.406916 -6.285289l0 4.2591286l-5.9412537 4.259128l0.17520142 15.173144l2.970169 -2.3957596l0 4.126381l-2.970169 2.1295643l0 6.5214386l-2.7280064 2.1665955z" fill-rule="evenodd"></path></g></svg>

